<?xml version="1.0" encoding="utf-8"?>
<!-- Generator: Adobe Illustrator 14.0.0, SVG Export Plug-In . SVG Version: 6.00 Build 43363)  -->
<!DOCTYPE svg PUBLIC "-//W3C//DTD SVG 1.1//EN" "http://www.w3.org/Graphics/SVG/1.1/DTD/svg11.dtd">
<svg version="1.1" id="Layer_1" xmlns="http://www.w3.org/2000/svg" xmlns:xlink="http://www.w3.org/1999/xlink" x="0px" y="0px"
	 width="2584.182px" height="410.321px" viewBox="0 0 2584.182 410.321" enable-background="new 0 0 2584.182 410.321"
	 xml:space="preserve">
<g>
	<g>
		<path fill="#123456" d="M546.121,101.7h-81.219v208.848h-29.836V101.7h-81.218V75.18h192.272V101.7z"/>
		<path fill="#123456" d="M630.938,163.029c-14.586,0.445-27.463,4.201-38.62,11.271c-11.162,7.076-19.062,16.907-23.703,29.504
			v106.745h-29.172V137.503h27.184v40.112c5.967-11.934,13.809-21.6,23.536-29.007c9.723-7.402,20.108-11.545,31.162-12.431
			c2.206,0,4.087,0,5.635,0c1.544,0,2.87,0.114,3.979,0.332V163.029z"/>
		<path fill="#123456" d="M704.198,313.863c-8.18,0-15.804-1.383-22.874-4.144c-7.076-2.761-13.209-6.573-18.398-11.437
			c-5.195-4.859-9.282-10.551-12.266-17.073c-2.984-6.516-4.476-13.644-4.476-21.382c0-7.956,1.767-15.192,5.304-21.714
			c3.533-6.516,8.563-12.1,15.084-16.741c6.516-4.641,14.255-8.288,23.205-10.94c8.95-2.652,18.73-3.978,29.338-3.978
			c8.396,0,16.907,0.777,25.526,2.321c8.619,1.549,16.243,3.646,22.874,6.298v-13.923c0-14.141-3.979-25.247-11.935-33.316
			c-7.956-8.065-19.228-12.1-33.813-12.1c-17.461,0-35.803,6.744-55.03,20.222l-9.613-18.896
			c22.319-15.026,44.753-22.542,67.296-22.542c22.76,0,40.495,6.081,53.206,18.233c12.706,12.157,19.062,29.287,19.062,51.383v70.61
			c0,6.853,3.093,10.391,9.282,10.608v25.194c-3.098,0.44-5.636,0.772-7.624,0.995c-1.989,0.217-4.093,0.332-6.299,0.332
			c-5.75,0-10.334-1.709-13.758-5.139c-3.429-3.424-5.47-7.567-6.133-12.431l-0.663-12.266
			c-7.738,10.391-17.518,18.29-29.338,23.703C730.33,311.154,717.676,313.863,704.198,313.863z M711.822,291.984
			c10.386,0,20.057-1.932,29.007-5.801c8.95-3.864,15.746-9.002,20.388-15.415c4.195-4.195,6.299-8.505,6.299-12.929v-25.526
			c-14.146-5.521-28.841-8.288-44.091-8.288c-14.586,0-26.469,3.098-35.637,9.282c-9.173,6.19-13.757,14.255-13.757,24.2
			c0,4.864,0.938,9.396,2.817,13.592c1.875,4.201,4.527,7.848,7.956,10.94c3.424,3.097,7.459,5.527,12.1,7.293
			C701.546,291.104,706.519,291.984,711.822,291.984z"/>
		<path fill="#123456" d="M904.091,313.863c-13.923,0-27.629-2.155-41.106-6.464c-13.483-4.31-25.086-10.551-34.808-18.73
			l12.597-19.559c10.163,7.738,20.331,13.54,30.498,17.404c10.163,3.869,20.886,5.801,32.156,5.801
			c12.598,0,22.595-2.486,30.001-7.458c7.402-4.973,11.105-11.986,11.105-21.051c0-4.196-0.994-7.791-2.983-10.774
			s-4.973-5.579-8.95-7.791c-3.979-2.207-9.064-4.195-15.249-5.967c-6.19-1.767-13.375-3.646-21.548-5.636
			c-10.391-2.652-19.342-5.19-26.853-7.625c-7.516-2.429-13.705-5.304-18.564-8.619c-4.863-3.315-8.401-7.293-10.607-11.934
			c-2.212-4.641-3.315-10.386-3.315-17.238c0-8.619,1.709-16.296,5.139-23.04c3.424-6.739,8.122-12.375,14.089-16.907
			c5.967-4.527,12.98-7.957,21.051-10.277c8.064-2.321,16.74-3.481,26.022-3.481c13.038,0,25.194,2.103,36.466,6.299
			c11.271,4.201,20.771,9.728,28.51,16.575l-13.261,17.57c-7.293-6.408-15.472-11.214-24.531-14.42
			c-9.064-3.201-18.347-4.807-27.847-4.807c-10.607,0-19.615,2.269-27.018,6.796c-7.407,4.532-11.105,11.769-11.105,21.714
			c0,3.978,0.715,7.293,2.155,9.945c1.435,2.652,3.813,4.973,7.127,6.962c3.315,1.989,7.568,3.76,12.764,5.304
			c5.189,1.549,11.437,3.207,18.729,4.973c11.489,2.652,21.491,5.361,30.001,8.122c8.506,2.766,15.581,6.024,21.217,9.779
			c5.636,3.761,9.831,8.179,12.597,13.26c2.761,5.086,4.145,11.271,4.145,18.564c0,16.135-6.19,28.955-18.564,38.455
			C941.769,309.114,925.085,313.863,904.091,313.863z"/>
		<path fill="#123456" d="M1157.357,310.548h-29.173v-96.799c0-17.901-3.098-31.213-9.282-39.946
			c-6.189-8.728-15.249-13.095-27.184-13.095c-5.749,0-11.493,1.16-17.238,3.481c-5.749,2.32-11.105,5.47-16.078,9.448
			c-4.972,3.978-9.396,8.733-13.26,14.255c-3.869,5.527-6.796,11.603-8.785,18.232v104.424h-29.172V68.55h29.172v106.082
			c6.848-12.597,16.13-22.429,27.847-29.504c11.712-7.07,24.531-10.608,38.455-10.608c10.162,0,18.781,1.88,25.857,5.636
			c7.07,3.76,12.705,8.842,16.906,15.249c4.195,6.413,7.236,14.089,9.116,23.04c1.875,8.951,2.818,18.513,2.818,28.675V310.548z"/>
		<path fill="#123456" d="M1276.031,191.207c0-14.141,2.486-28.23,7.459-42.267c4.973-14.032,12.266-26.629,21.879-37.792
			c9.614-11.157,21.383-20.165,35.306-27.018c13.923-6.848,29.722-10.277,47.405-10.277c20.993,0,39.004,4.755,54.035,14.255
			c15.026,9.505,26.188,21.879,33.482,37.128l-23.537,15.25c-3.538-7.511-7.79-13.81-12.763-18.896
			c-4.973-5.081-10.391-9.168-16.244-12.266c-5.858-3.092-11.883-5.304-18.067-6.63c-6.189-1.326-12.266-1.989-18.232-1.989
			c-13.043,0-24.588,2.709-34.643,8.122c-10.059,5.418-18.512,12.488-25.359,21.216c-6.854,8.733-11.991,18.564-15.415,29.504
			c-3.43,10.939-5.139,21.936-5.139,32.985c0,12.379,2.041,24.148,6.133,35.305c4.087,11.162,9.779,21.05,17.072,29.669
			s15.912,15.472,25.857,20.554c9.945,5.086,20.771,7.625,32.487,7.625c6.185,0,12.541-0.772,19.062-2.321
			c6.517-1.543,12.764-4.03,18.73-7.458c5.967-3.424,11.546-7.733,16.741-12.929c5.189-5.19,9.447-11.437,12.763-18.73
			l24.863,13.591c-3.761,8.842-9.008,16.632-15.747,23.371c-6.744,6.744-14.368,12.432-22.874,17.073
			c-8.51,4.641-17.518,8.179-27.018,10.608c-9.505,2.43-18.787,3.647-27.846,3.647c-16.136,0-30.944-3.533-44.422-10.608
			c-13.483-7.07-25.143-16.295-34.974-27.681c-9.837-11.38-17.461-24.309-22.874-38.786
			C1278.735,220.99,1276.031,206.238,1276.031,191.207z"/>
		<path fill="#123456" d="M1588.307,313.863c-13.043,0-24.92-2.435-35.637-7.293c-10.723-4.859-19.891-11.38-27.515-19.559
			c-7.625-8.174-13.54-17.679-17.736-28.51c-4.2-10.826-6.298-22.211-6.298-34.145c0-12.152,2.154-23.646,6.464-34.477
			c4.31-10.826,10.276-20.331,17.901-28.509c7.625-8.174,16.793-14.695,27.515-19.559c10.717-4.859,22.485-7.293,35.306-7.293
			c12.814,0,24.64,2.435,35.471,7.293c10.826,4.864,20.057,11.385,27.681,19.559c7.625,8.179,13.592,17.684,17.901,28.509
			c4.31,10.831,6.465,22.325,6.465,34.477c0,11.934-2.104,23.319-6.299,34.145c-4.201,10.831-10.168,20.336-17.901,28.51
			c-7.738,8.179-16.964,14.7-27.681,19.559C1613.222,311.429,1601.344,313.863,1588.307,313.863z M1530.956,224.688
			c0,9.064,1.492,17.461,4.476,25.194c2.983,7.739,7.07,14.478,12.266,20.222c5.19,5.75,11.271,10.277,18.232,13.592
			c6.962,3.315,14.421,4.973,22.377,4.973s15.415-1.657,22.377-4.973c6.961-3.315,13.094-7.899,18.398-13.757
			c5.304-5.853,9.447-12.706,12.431-20.553c2.984-7.842,4.476-16.295,4.476-25.36c0-8.836-1.491-17.181-4.476-25.028
			c-2.983-7.842-7.127-14.695-12.431-20.554c-5.305-5.853-11.438-10.442-18.398-13.757c-6.962-3.315-14.421-4.973-22.377-4.973
			s-15.415,1.715-22.377,5.139c-6.961,3.429-13.042,8.07-18.232,13.923c-5.195,5.858-9.282,12.711-12.266,20.554
			C1532.448,207.176,1530.956,215.629,1530.956,224.688z"/>
		<path fill="#123456" d="M1861.467,310.548h-29.173v-96.799c0-18.564-2.817-32.042-8.453-40.444
			c-5.636-8.396-14.203-12.597-25.691-12.597c-5.968,0-11.935,1.16-17.901,3.481c-5.968,2.32-11.603,5.47-16.907,9.448
			c-5.304,3.978-9.945,8.733-13.923,14.255c-3.979,5.527-6.962,11.603-8.951,18.232v104.424h-29.172V137.503h26.521v37.128
			c6.848-12.152,16.74-21.879,29.669-29.172c12.929-7.293,27.018-10.94,42.268-10.94c9.945,0,18.232,1.823,24.862,5.47
			c6.631,3.647,11.935,8.733,15.912,15.25c3.979,6.521,6.796,14.203,8.454,23.04c1.657,8.842,2.486,18.456,2.486,28.841V310.548z"/>
		<path fill="#123456" d="M2048.053,310.548h-29.173v-96.799c0-18.564-2.817-32.042-8.453-40.444
			c-5.636-8.396-14.203-12.597-25.691-12.597c-5.968,0-11.935,1.16-17.901,3.481c-5.968,2.32-11.603,5.47-16.907,9.448
			c-5.304,3.978-9.945,8.733-13.923,14.255c-3.979,5.527-6.962,11.603-8.951,18.232v104.424h-29.172V137.503h26.521v37.128
			c6.848-12.152,16.74-21.879,29.669-29.172c12.929-7.293,27.018-10.94,42.268-10.94c9.945,0,18.232,1.823,24.862,5.47
			c6.631,3.647,11.935,8.733,15.912,15.25c3.979,6.521,6.796,14.203,8.454,23.04c1.657,8.842,2.486,18.456,2.486,28.841V310.548z"/>
		<path fill="#123456" d="M2161.045,313.863c-13.042,0-24.977-2.377-35.803-7.127c-10.83-4.75-20.112-11.214-27.846-19.393
			c-7.739-8.173-13.758-17.735-18.067-28.675c-4.31-10.94-6.464-22.485-6.464-34.643c0-12.151,2.154-23.646,6.464-34.477
			c4.31-10.826,10.386-20.331,18.232-28.509c7.843-8.174,17.182-14.638,28.013-19.393c10.825-4.75,22.76-7.127,35.803-7.127
			c13.037,0,24.914,2.435,35.637,7.293c10.717,4.864,19.833,11.328,27.349,19.393c7.511,8.07,13.313,17.461,17.404,28.178
			c4.087,10.722,6.133,21.828,6.133,33.316c0,2.434-0.057,4.641-0.166,6.63c-0.113,1.989-0.279,3.538-0.497,4.641h-143.542
			c0.663,8.619,2.652,16.466,5.968,23.537c3.314,7.076,7.624,13.152,12.929,18.233c5.304,5.086,11.323,9.064,18.066,11.934
			c6.739,2.875,13.866,4.31,21.383,4.31c5.304,0,10.494-0.715,15.58-2.155c5.082-1.435,9.831-3.367,14.255-5.801
			c4.419-2.429,8.34-5.413,11.769-8.951c3.424-3.532,6.019-7.511,7.79-11.934l25.194,6.961c-2.874,6.413-6.796,12.266-11.768,17.57
			c-4.973,5.304-10.723,9.894-17.238,13.758c-6.521,3.869-13.758,6.91-21.714,9.116S2169.664,313.863,2161.045,313.863z
			 M2220.385,212.423c-0.663-8.174-2.709-15.747-6.133-22.708c-3.43-6.962-7.738-12.872-12.929-17.736
			c-5.195-4.858-11.22-8.671-18.067-11.437c-6.853-2.761-14.146-4.144-21.879-4.144c-7.739,0-15.032,1.383-21.88,4.144
			c-6.853,2.766-12.877,6.63-18.066,11.603c-5.195,4.973-9.396,10.888-12.598,17.735c-3.206,6.853-5.139,14.369-5.801,22.542
			H2220.385z"/>
		<path fill="#123456" d="M2268.781,223.694c0-12.151,2.098-23.646,6.298-34.477c4.196-10.826,10.163-20.273,17.901-28.343
			c7.733-8.065,16.959-14.473,27.681-19.228c10.717-4.75,22.708-7.127,35.969-7.127c17.238,0,32.099,3.813,44.587,11.437
			c12.483,7.625,21.932,17.85,28.344,30.664l-28.509,8.951c-4.424-8.173-10.608-14.529-18.564-19.062
			c-7.956-4.527-16.798-6.796-26.521-6.796c-7.956,0-15.472,1.606-22.542,4.807c-7.076,3.206-13.152,7.682-18.233,13.426
			c-5.086,5.75-9.116,12.488-12.1,20.222c-2.983,7.739-4.476,16.244-4.476,25.526c0,9.065,1.544,17.57,4.642,25.526
			c3.092,7.957,7.235,14.866,12.431,20.719c5.19,5.858,11.271,10.442,18.233,13.757c6.961,3.315,14.42,4.973,22.376,4.973
			c5.082,0,10.111-0.715,15.084-2.155c4.973-1.435,9.5-3.367,13.592-5.801c4.087-2.429,7.676-5.247,10.773-8.454
			c3.093-3.201,5.305-6.682,6.63-10.442l28.51,8.619c-2.652,6.413-6.355,12.266-11.105,17.57
			c-4.755,5.304-10.333,9.836-16.741,13.592c-6.412,3.761-13.539,6.744-21.382,8.951c-7.848,2.207-16.078,3.315-24.697,3.315
			c-13.042,0-24.977-2.435-35.803-7.293c-10.83-4.859-20.112-11.38-27.846-19.559c-7.739-8.174-13.758-17.736-18.067-28.675
			C2270.936,247.396,2268.781,235.851,2268.781,223.694z"/>
		<path fill="#123456" d="M2553.538,301.929c-1.771,0.886-4.092,1.937-6.961,3.149c-2.875,1.217-6.133,2.435-9.78,3.646
			c-3.646,1.217-7.624,2.207-11.934,2.983c-4.31,0.772-8.785,1.16-13.426,1.16c-10.608,0-19.782-2.926-27.516-8.785
			c-7.738-5.853-11.603-14.97-11.603-27.349V160.376h-23.536v-22.874h23.536V79.821h29.173v57.682h38.786v22.874h-38.786v107.408
			c0.44,6.413,2.538,11.054,6.299,13.923c3.755,2.875,8.173,4.31,13.26,4.31c5.744,0,10.991-0.938,15.746-2.818
			c4.75-1.875,8.009-3.367,9.78-4.476L2553.538,301.929z"/>
	</g>
	<g>
		<circle fill="#FFFFFF" cx="146.379" cy="145.758" r="101.607"/>
		<g>
			<path fill="#1883C4" d="M170.965,82.92c-0.944-2.223-2.31-4.226-3.992-5.909s-3.687-3.048-5.909-3.991
				c-2.224-0.944-4.667-1.468-7.226-1.468h-7.439h-0.039h-7.438c-2.56,0-5.001,0.524-7.226,1.468
				c-2.224,0.943-4.227,2.308-5.91,3.991c-1.683,1.683-3.047,3.686-3.992,5.909c-0.945,2.222-1.468,4.665-1.468,7.227V98.5v8.353
				l6.861,0.108l6.862,0.107v-8.462v-8.46h0h0.001c0-0.67,0.138-1.309,0.387-1.888c0.249-0.581,0.608-1.104,1.05-1.543
				c0.441-0.444,0.967-0.804,1.549-1.053c0.582-0.248,1.22-0.386,1.885-0.386h7.438h0.039h7.439c0.666,0,1.303,0.138,1.885,0.386
				c0.582,0.249,1.107,0.609,1.549,1.053c0.442,0.439,0.801,0.962,1.049,1.543c0.25,0.58,0.388,1.218,0.388,1.888h0.001h0.001v8.46
				v8.462l6.861-0.107l6.861-0.108V98.5v-8.354C172.433,87.585,171.909,85.143,170.965,82.92z"/>
			<path fill="#1883C4" d="M185.409,95.317c-1.613-0.361-3.35-0.699-5.263-1.024v9.246c1.204,0.222,2.315,0.445,3.36,0.675
				c2.556,0.56,4.129,0.859,5.17,1.058c0.873,0.165,1.313,0.25,1.68,0.367c1.391,0.444,1.885,1.563,1.885,2.461
				c0,0.901-0.496,2.024-1.889,2.471c-0.377,0.122-0.83,0.207-1.73,0.379c-1.039,0.197-2.607,0.496-5.116,1.044
				c-9.849,2.164-23.032,3.355-37.123,3.355c-14.095,0-27.28-1.191-37.125-3.355c-2.516-0.552-4.088-0.85-5.127-1.048
				c-0.898-0.17-1.348-0.256-1.724-0.377c-1.394-0.447-1.89-1.568-1.89-2.47c0-0.898,0.495-2.017,1.885-2.461
				c0.368-0.117,0.807-0.202,1.683-0.368c1.043-0.198,2.619-0.497,5.174-1.057c1.27-0.276,1.955-0.313,2.617-0.346
				c0.011-0.001,0.021-0.001,0.032-0.002v-9.187c-0.23,0.022-0.449,0.044-0.662,0.064c-1.333,0.126-2.294,0.218-3.893,0.573
				c-12.317,2.691-19.378,7.35-19.378,12.782c0,2.813,1.854,5.398,5.509,7.685l1.016,0.636l4.008,76.238l-0.9,0.739
				c-2.375,1.95-3.529,4.034-3.529,6.37c0,5.34,6.513,9.828,17.869,12.316c9.273,2.028,21.503,3.145,34.435,3.145
				c12.931,0,25.159-1.117,34.429-3.145c11.354-2.488,17.868-6.976,17.868-12.316c0-2.27-1.092-4.3-3.334-6.209l-0.864-0.734
				l3.685-76.336l1.025-0.638c3.709-2.308,5.59-4.915,5.59-7.75C204.782,102.666,197.721,98.007,185.409,95.317z M112.369,194.237
				l-3.039-67.282l18.608,1.952l0.504,69.411L112.369,194.237z M156.357,198.205h-18.69v-68.607h18.69V198.205z M181.163,194.237
				l-16.072,4.081l0.496-69.411l18.615-1.952L181.163,194.237z"/>
		</g>
		<path fill="#A6CE39" d="M146.379,27C80.395,27,27,80.395,27,146.379c0,14.222,1.632,28.914,7.696,41.738L119.8,368.585
			c4.662,10.259,15.389,16.554,26.58,16.554c11.192,0,21.918-6.295,26.816-16.554l84.868-180.468
			c6.063-12.824,7.695-27.516,7.695-41.738C265.759,80.395,212.364,27,146.379,27z M146.379,241.942
			c-52.512,0-95.08-42.569-95.08-95.081c0-52.512,42.568-95.081,95.08-95.081c52.512,0,95.081,42.569,95.081,95.081
			C241.46,199.374,198.892,241.942,146.379,241.942z"/>
	</g>
</g>
</svg>
